Coordinates
version=1
nRows=12
nColumns=33
inDegrees=yes

Units are S.I. units (second, meters, Newtons, ...)
Angles are in degrees.

endheader
time	ground_thorax_rot_x	ground_thorax_rot_y	ground_thorax_rot_z	ground_thorax_tx	ground_thorax_ty	ground_thorax_tz	clav_prot_r	clav_elev_r	scapula_abduction_r	scapula_elevation_r	scapula_upward_rot_r	scapula_winging_r	shoulder_elv_r	plane_of_elev_r	axial_rot_r	elbow_flexion_r	pro_sup_r	wrist_flex_r	wrist_dev_r	clav_prot_l	clav_elev_l	scapula_abduction_l	scapula_elevation_l	scapula_upward_rot_l	scapula_winging_l	shoulder_elv_l	plane_of_elev_l	axial_rot_l	elbow_flexion_l	pro_sup_l	wrist_flex_l	wrist_dev_l
      7.69000000	    -27.21588886	    -36.87420704	     46.34455778	      1.97794551	    828.90827837	    -49.20949726	     45.00000000	    -45.00000000	     42.00348662	    -45.00000000	    -27.43429260	    352.19679359	   4177.68992931	    -90.00000000	    -17.91102473	   3937.40163135	    112.26303462	     12.26548028	     11.16776442	     -0.02614881	     32.50516553	    -31.93834358	    -45.00000000	    -45.00000000	   4407.30535725	  -5126.95854854	    131.79042618	    -97.40689621	   1789.83634122	    403.43789457	     14.62413712	    -16.78230222
      7.70000000	    -26.87207881	    -37.23663966	     47.02105612	      4.38181797	    827.88699805	    -49.01467521	     45.00000000	    -45.00000000	     41.99479345	    -45.00000000	    -27.75513640	    352.25243077	   4177.54515878	    -90.00000000	    -17.83712732	   3937.37685038	    112.78282640	     12.20938217	     11.15052415	     -0.06241715	     32.45268766	    -31.78719193	    -45.00000000	    -45.00000000	   4407.22916379	  -5127.07105962	    131.87433259	    -97.77909058	   1789.82236317	    403.51696896	     14.55048816	    -16.61664128
      7.71000000	    -26.62123255	    -37.51331785	     47.56691568	      6.79250208	    826.84063280	    -48.81819729	     45.00000000	    -45.00000000	     41.87419266	    -45.00000000	    -27.97622051	    352.35046039	   4177.43676732	    -90.00000000	    -17.78574358	   3937.47513375	    113.30333705	     12.15443965	     11.09427257	     -0.06250266	     32.45438216	    -31.71298406	    -45.00000000	    -45.00000000	   4407.16509535	  -5127.18682774	    131.90107605	    -98.16975469	   1789.80059470	    403.61736253	     14.47586224	    -16.45895655
      7.72000000	    -26.25343807	    -37.89018615	     48.27918266	      9.20467156	    825.76810853	    -48.61781098	     45.00000000	    -45.00000000	     41.87769959	    -45.00000000	    -28.38597266	    352.37464938	   4177.31922511	    -90.00000000	    -17.69569669	   3937.44465457	    113.79474928	     12.11009476	     11.07611388	     -0.07635522	     32.38763061	    -31.54046176	    -45.00000000	    -45.00000000	   4407.05298491	  -5127.31227543	    132.02936098	    -98.60504287	   1789.81729021	    403.72991066	     14.38235517	    -16.28793500
      7.73000000	    -25.89142850	    -38.23479420	     48.94749896	     11.61962087	    824.66575488	    -48.41031138	     45.00000000	    -45.00000000	     41.83753723	    -45.00000000	    -28.76999829	    352.45074033	   4177.20428594	    -90.00000000	    -17.62279343	   3937.45322415	    114.25345549	     12.06976279	     11.03741041	     -0.08963853	     32.34141963	    -31.39699625	    -45.00000000	    -45.00000000	   4406.91805522	  -5127.46562928	    132.17262830	    -99.06880199	   1789.81736474	    403.86450267	     14.26860843	    -16.10180610
      7.74000000	    -25.52199392	    -38.56402533	     49.64273713	     14.03250966	    823.53309751	    -48.19381170	     45.00000000	    -45.00000000	     41.74270102	    -45.00000000	    -29.17181617	    352.51707931	   4177.08911672	    -90.00000000	    -17.56641594	   3937.48639980	    114.69222284	     12.02137049	     10.99244579	     -0.14573062	     32.30814782	    -31.23354592	    -45.00000000	    -45.00000000	   4406.78593250	  -5127.60997141	    132.28439696	    -99.52716866	   1789.82196450	    404.01191511	     14.14951027	    -15.92859455
      7.75000000	    -25.17233731	    -38.88848741	     50.31814857	     16.44222490	    822.36953084	    -47.96696150	     45.00000000	    -45.00000000	     41.64325429	    -45.00000000	    -29.56971032	    352.60273208	   4176.96549339	    -90.00000000	    -17.50711340	   3937.53273008	    115.13230792	     11.95262966	     10.95330240	     -0.20757400	     32.28391670	    -31.08648699	    -45.00000000	    -45.00000000	   4406.72301292	  -5127.73389066	    132.34555953	    -99.99243162	   1789.82093237	    404.17443053	     14.05744943	    -15.79525719
      7.76000000	    -24.76347281	    -39.21908295	     51.05732108	     18.84509418	    821.17703054	    -47.73016728	     45.00000000	    -45.00000000	     41.54654909	    -45.00000000	    -30.03087224	    352.65902575	   4176.88072760	    -90.00000000	    -17.48832801	   3937.58951704	    115.54664559	     11.91281004	     10.89584926	     -0.26292274	     32.23143630	    -30.89416895	    -45.00000000	    -45.00000000	   4406.56406697	  -5127.87936912	    132.48717702	   -100.50288422	   1789.80647810	    404.35493346	     13.92853675	    -15.61744441
      7.77000000	    -24.39451311	    -39.52104034	     51.75633780	     21.24159914	    819.95736008	    -47.48453997	     45.00000000	    -45.00000000	     41.40325612	    -45.00000000	    -30.44661830	    352.74867888	   4176.77141280	    -90.00000000	    -17.45767598	   3937.66869941	    115.97065527	     11.83762687	     10.85208762	     -0.35159721	     32.22022124	    -30.73825522	    -45.00000000	    -45.00000000	   4406.51684976	  -5128.00273141	    132.51807875	   -101.00593241	   1789.79345196	    404.53895689	     13.84071562	    -15.50039728
      7.78000000	    -23.99983074	    -39.85453138	     52.48467063	     23.62716335	    818.71561841	    -47.23271848	     45.00000000	    -45.00000000	     41.29423507	    -45.00000000	    -30.92242498	    352.86962470	   4176.58681025	    -90.00000000	    -17.40206480	   3937.67305550	    116.41004180	     11.75609656	     10.82451251	     -0.40660569	     32.17782667	    -30.57036409	    -45.00000000	    -45.00000000	   4406.46111509	  -5128.13336226	    132.61425209	   -101.51340531	   1789.80914690	    404.73403431	     13.74121926	    -15.38340735
      7.79000000	    -23.57097523	    -40.11621419	     53.27833177	     26.00677170	    817.45251242	    -46.97638105	     45.00000000	    -45.00000000	     41.05172398	    -45.00000000	    -31.38024029	    352.97279883	   4176.56613608	    -90.00000000	    -17.45966884	   3937.87539560	    116.79266816	     11.72761578	     10.70137909	     -0.50450102	     32.16094686	    -30.37369891	    -45.00000000	    -45.00000000	   4406.23344831	  -5128.24159355	    132.76857841	   -102.16030519	   1789.79803527	    404.94540129	     13.57590284	    -15.18346744
      7.80000000	    -23.20273647	    -40.46315873	     53.96519834	     28.37276890	    816.17475931	    -46.71818921	     45.00000000	    -45.00000000	     40.99287995	    -45.00000000	    -31.89425351	    353.02005062	   4176.37369474	    -90.00000000	    -17.35172622	   3937.81107870	    117.26865463	     11.59188657	     10.74559145	     -0.57763356	     32.14140855	    -30.20686143	    -45.00000000	    -45.00000000	   4406.40581877	  -5128.40959059	    132.72423972	   -102.64380199	   1789.79575889	    405.14719097	     13.56553993	    -15.16489916
